<?xml version="1.0" encoding="utf-8"?>
<!-- Generator: Adobe Illustrator 18.1.1, SVG Export Plug-In . SVG Version: 6.00 Build 0)  -->
<!DOCTYPE svg PUBLIC "-//W3C//DTD SVG 1.1//EN" "http://www.w3.org/Graphics/SVG/1.1/DTD/svg11.dtd">
<svg version="1.1" id="Capa_1" xmlns="http://www.w3.org/2000/svg" xmlns:xlink="http://www.w3.org/1999/xlink" x="0px" y="0px"
	 viewBox="-24 -24 148 148" enable-background="new -24 -24 148 148" xml:space="preserve">
<g>
	<polygon stroke="#000000" stroke-width="2" stroke-miterlimit="10" points="41.3,57.7 42.1,58.5 49.5,51.1 49.5,74.8 50.5,74.8 
		50.5,51.1 57.9,58.5 58.7,57.7 50,49 	"/>
	<path stroke="#000000" stroke-width="2" stroke-miterlimit="10" d="M71.3,38.2c-0.1,0-0.2,0-0.3,0c-1.1-7.5-7.4-13-15.1-13
		c-6.5,0-12.3,4.2-14.4,10.3c-1.1-0.3-2.3-0.5-3.4-0.5c-6,0-11.1,4.4-12,10.3c-0.3,0-0.6-0.1-0.9-0.1c-4.7,0-8.6,3.8-8.6,8.6
		c0,4.7,3.8,8.6,8.6,8.6h10.8v-1.1H25.2c-4.1,0-7.5-3.4-7.5-7.5c0-4.1,3.3-7.5,7.5-7.5c0.4,0,0.8,0,1.3,0.1l0.6,0.1l0.1-0.6
		c0.6-5.6,5.3-9.9,10.9-9.9c1.2,0,2.4,0.2,3.6,0.6l0.5,0.2l0.2-0.5c1.8-5.9,7.3-10.1,13.5-10.1c7.2,0,13.3,5.4,14,12.6l0.1,0.5
		l0.5,0c0.2,0,0.5,0,0.7,0c6.1,0,11,4.9,11,11c0,6.1-4.9,11-11,11h-7v1.1h7c6.7,0,12.1-5.4,12.1-12.1C83.3,43.6,77.9,38.2,71.3,38.2
		z"/>
</g>
<circle fill="none" stroke="#000000" stroke-width="4" stroke-miterlimit="10" cx="50" cy="50" r="51.7"/>
</svg>
